<svg width="137" height="15" viewBox="0 0 137 15" fill="none" xmlns="http://www.w3.org/2000/svg">
<path d="M0.485352 14.6972H3.52715V9.26493H11.2354V6.5595H3.52715V3.34594H12.5953V0.490234H0.485352V14.6972Z" fill="white"/>
<path d="M27.2603 2.3082C26.5876 1.67121 25.7645 1.1702 24.8269 0.826659C23.8893 0.475957 22.8372 0.304199 21.7135 0.304199C20.5899 0.304199 19.5306 0.483115 18.593 0.826659C17.6554 1.17736 16.8395 1.67121 16.1596 2.3082C15.4868 2.94519 14.9572 3.71818 14.585 4.60567C14.2128 5.49316 14.0267 6.48083 14.0267 7.54725C14.0267 8.61367 14.2128 9.61569 14.585 10.5103C14.9572 11.405 15.4868 12.1923 16.1596 12.8364C16.8323 13.4806 17.6483 13.9887 18.593 14.3466C19.5306 14.7044 20.5827 14.8834 21.7207 14.8834C22.8587 14.8834 23.9036 14.7044 24.8412 14.3466C25.7788 13.9887 26.6019 13.4806 27.2747 12.8364C27.9474 12.1923 28.4771 11.405 28.8492 10.5103C29.2214 9.61569 29.4075 8.62083 29.4075 7.54725C29.4075 6.47368 29.2214 5.49316 28.8492 4.60567C28.4771 3.71818 27.9474 2.94519 27.2747 2.3082H27.2675H27.2603ZM21.7064 11.999C21.0336 11.999 20.4109 11.8917 19.8455 11.6841C19.2801 11.4766 18.7862 11.176 18.3711 10.7895C17.9632 10.403 17.6339 9.93776 17.4049 9.39381C17.1759 8.84987 17.0542 8.23434 17.0542 7.54725C17.0542 6.86016 17.1687 6.2518 17.4049 5.70785C17.6339 5.17107 17.9632 4.71303 18.3711 4.34085C18.7862 3.96868 19.2801 3.67523 19.8455 3.48198C20.4109 3.28158 21.0408 3.1814 21.7135 3.1814C22.3863 3.1814 23.009 3.28158 23.5815 3.48198C24.147 3.67523 24.6408 3.96868 25.0488 4.34085C25.4567 4.71303 25.7788 5.17107 26.015 5.70785C26.2512 6.24464 26.3657 6.86016 26.3657 7.54725C26.3657 8.23434 26.2512 8.84987 26.015 9.39381C25.7788 9.93776 25.4567 10.4101 25.0416 10.7895C24.6337 11.176 24.1398 11.4766 23.5744 11.6841C23.009 11.8917 22.3791 11.999 21.7135 11.999H21.7064Z" fill="white"/>
<path d="M43.2208 9.47964C43.6073 9.16472 43.9294 8.79969 44.1799 8.39174C44.4376 7.99093 44.6236 7.54004 44.7453 7.06051C44.867 6.58098 44.9242 6.07283 44.9242 5.55036C44.9242 4.77023 44.8026 4.05449 44.5521 3.43182C44.3016 2.80199 43.9222 2.2652 43.4141 1.82146C42.9131 1.38487 42.2689 1.05563 41.5103 0.8266C40.7588 0.604728 39.8641 0.490234 38.8407 0.490234H31.9769V14.6972H35.0187V10.7679H38.8335L41.3027 14.6972H45.0173L42.0972 10.1739C42.5194 9.98062 42.8988 9.75162 43.228 9.4868L43.2208 9.47964ZM41.7465 5.5432C41.7465 5.90821 41.6892 6.24461 41.5747 6.53805C41.4602 6.8315 41.2884 7.07482 41.0594 7.27522C40.8232 7.48278 40.5297 7.64027 40.179 7.75478C39.8212 7.86929 39.3917 7.93371 38.9122 7.93371H35.0187V3.31733H38.9122C39.8784 3.31733 40.6013 3.51773 41.0665 3.90422C41.5246 4.29071 41.7465 4.82031 41.7465 5.53603V5.5432Z" fill="white"/>
<path d="M64.2629 0.483238L60.6271 9.57285L60.1619 11.1546L59.5535 9.58718L58.2509 6.34496L60.6915 0.476074H57.5352L56.7622 2.78787L55.932 0.476074H52.7757L55.2163 6.34496L53.928 9.53708L53.4413 11.1617L52.8114 9.52275L49.2042 0.483238H45.8833L51.8452 14.6902H54.7224L55.9606 11.8274L56.7336 9.6659L57.5066 11.8345L58.7233 14.6902H61.6076L67.5624 0.483238H64.2414H64.2629Z" fill="white"/>
<path d="M96.055 9.47964C96.4414 9.16472 96.7635 8.79969 97.014 8.39174C97.2717 7.99093 97.4578 7.54004 97.5794 7.06051C97.7011 6.58098 97.7584 6.07283 97.7584 5.55036C97.7584 4.77023 97.6367 4.05449 97.3862 3.43182C97.1357 2.80199 96.7564 2.2652 96.2482 1.82146C95.7472 1.38487 95.1031 1.05563 94.3444 0.8266C93.5929 0.604728 92.6982 0.490234 91.6748 0.490234H84.811V14.6972H87.8528V10.7679H91.6676L94.1368 14.6972H97.8514L94.9313 10.1739C95.3535 9.98062 95.7329 9.75162 96.0621 9.4868L96.055 9.47964ZM94.5806 5.5432C94.5806 5.90821 94.5233 6.24461 94.4088 6.53805C94.2943 6.8315 94.1225 7.07482 93.8935 7.27522C93.6573 7.48278 93.3639 7.64027 93.0132 7.75478C92.6553 7.86929 92.2259 7.93371 91.7463 7.93371H87.8528V3.31733H91.7463C92.7126 3.31733 93.4354 3.51773 93.9006 3.90422C94.3587 4.29071 94.5806 4.82031 94.5806 5.53603V5.5432Z" fill="white"/>
<path d="M111.887 2.3729C111.193 1.76454 110.305 1.29215 109.246 0.970081C108.201 0.648008 106.948 0.483398 105.531 0.483398H100.536V14.6904H105.553C106.97 14.6976 108.222 14.5186 109.267 14.1607C110.319 13.8029 111.207 13.3019 111.901 12.6649C112.595 12.0279 113.125 11.255 113.461 10.3818C113.798 9.5086 113.97 8.54955 113.97 7.52607C113.97 6.4525 113.798 5.46479 113.454 4.59877C113.111 3.7256 112.581 2.9741 111.88 2.36574L111.887 2.3729ZM106.19 11.8705H103.577V3.32482H106.19C106.963 3.32482 107.643 3.42501 108.222 3.62541C108.788 3.81865 109.274 4.10493 109.654 4.46278C110.026 4.82064 110.319 5.2644 110.505 5.77256C110.699 6.28787 110.792 6.88909 110.792 7.53324C110.792 8.17738 110.692 8.80003 110.505 9.33682C110.319 9.86645 110.026 10.3245 109.654 10.6967C109.274 11.0689 108.795 11.3623 108.222 11.5698C107.643 11.7774 106.963 11.8776 106.197 11.8776L106.19 11.8705Z" fill="white"/>
<path d="M119.652 0.304199H116.596V14.5112H119.652V0.304199Z" fill="white"/>
<path d="M133.48 0.304199V4.68438L125.543 0.304199H122.644V14.5112H125.679V3.82552L133.473 8.09837V14.5112H136.515V0.304199H133.473H133.48Z" fill="white"/>
<path d="M73.6746 0.483398L67.3405 14.6904H70.5612L75.2348 4.06198L80.0516 14.6904H83.2652L76.7378 0.483398H73.6746Z" fill="white"/>
</svg>
