<svg width="135" height="27" viewBox="0 0 135 27" fill="none" xmlns="http://www.w3.org/2000/svg">
<path d="M0.00551821 13.5218L16.2932 8.4091C17.022 8.17721 17.8447 8.55817 17.8502 9.12686L17.9109 13.1243L0 18.7007V13.5218H0.00551821Z" fill="white"/>
<path d="M0.00552368 6.05701L16.5748 0.856001C17.1711 0.668279 17.8447 0.977473 17.8502 1.44678L17.9164 5.65949L0.00552368 11.2359V6.05701Z" fill="white"/>
<path d="M10.1812 21.2461L0 18.0769V22.262C0 22.8694 0.502432 23.4159 1.27541 23.6589L10.1812 26.4526V21.2461Z" fill="white"/>
<path d="M30.0632 19.1061H32.4097V14.9155H38.3561V12.8285H32.4097V10.3495H39.4051V8.14648H30.0632V19.1061Z" fill="white"/>
<path d="M50.7182 9.54887C50.1992 9.05748 49.5642 8.67099 48.841 8.40597C48.1177 8.13543 47.306 8.00293 46.4392 8.00293C45.5724 8.00293 44.7552 8.14095 44.0319 8.40597C43.3087 8.67651 42.6792 9.05748 42.1547 9.54887C41.6357 10.0403 41.2272 10.6366 40.9401 11.3212C40.653 12.0058 40.5094 12.7678 40.5094 13.5904C40.5094 14.4131 40.653 15.1861 40.9401 15.8762C41.2272 16.5664 41.6357 17.1737 42.1547 17.6706C42.6737 18.1676 43.3031 18.5596 44.0319 18.8356C44.7552 19.1117 45.5669 19.2497 46.4447 19.2497C47.3226 19.2497 48.1287 19.1117 48.852 18.8356C49.5753 18.5596 50.2102 18.1676 50.7292 17.6706C51.2482 17.1737 51.6568 16.5664 51.9439 15.8762C52.231 15.1861 52.3746 14.4186 52.3746 13.5904C52.3746 12.7622 52.231 12.0058 51.9439 11.3212C51.6568 10.6366 51.2482 10.0403 50.7292 9.54887H50.7237H50.7182ZM46.4337 17.0247C45.9147 17.0247 45.4343 16.9418 44.9982 16.7817C44.562 16.6216 44.181 16.3897 43.8608 16.0916C43.5461 15.7934 43.2921 15.4345 43.1154 15.0149C42.9387 14.5953 42.8449 14.1205 42.8449 13.5904C42.8449 13.0604 42.9332 12.5911 43.1154 12.1715C43.2921 11.7574 43.5461 11.404 43.8608 11.1169C44.181 10.8298 44.562 10.6034 44.9982 10.4544C45.4343 10.2998 45.9202 10.2225 46.4392 10.2225C46.9582 10.2225 47.4386 10.2998 47.8803 10.4544C48.3164 10.6034 48.6974 10.8298 49.0121 11.1169C49.3268 11.404 49.5753 11.7574 49.7575 12.1715C49.9397 12.5856 50.028 13.0604 50.028 13.5904C50.028 14.1205 49.9397 14.5953 49.7575 15.0149C49.5753 15.4345 49.3268 15.7989 49.0066 16.0916C48.6919 16.3897 48.3109 16.6216 47.8747 16.7817C47.4386 16.9418 46.9527 17.0247 46.4392 17.0247H46.4337Z" fill="white"/>
<path d="M63.0306 15.0812C63.3287 14.8382 63.5772 14.5566 63.7704 14.2419C63.9692 13.9327 64.1127 13.5849 64.2066 13.215C64.3005 12.8451 64.3446 12.4531 64.3446 12.05C64.3446 11.4482 64.2508 10.8961 64.0575 10.4157C63.8643 9.92984 63.5716 9.51575 63.1796 9.17343C62.7932 8.83663 62.2962 8.58265 61.711 8.40597C61.1313 8.23481 60.4411 8.14648 59.6516 8.14648H54.3567V19.1061H56.7032V16.075H59.646L61.5509 19.1061H64.4164L62.1637 15.6167C62.4895 15.4676 62.7821 15.291 63.0361 15.0867L63.0306 15.0812ZM61.8932 12.0445C61.8932 12.3261 61.849 12.5856 61.7607 12.8119C61.6723 13.0383 61.5398 13.226 61.3631 13.3806C61.1809 13.5407 60.9546 13.6622 60.684 13.7506C60.408 13.8389 60.0767 13.8886 59.7068 13.8886H56.7032V10.3274H59.7068C60.4521 10.3274 61.0098 10.482 61.3687 10.7801C61.722 11.0783 61.8932 11.4868 61.8932 12.039V12.0445Z" fill="white"/>
<path d="M79.263 8.14102L76.4582 15.153L76.0994 16.3732L75.6301 15.1641L74.6252 12.6629L76.5079 8.1355H74.0731L73.4768 9.91888L72.8363 8.1355H70.4014L72.2842 12.6629L71.2904 15.1254L70.9149 16.3787L70.429 15.1144L67.6463 8.14102H65.0845L69.6837 19.1007H71.9032L72.8584 16.8922L73.4547 15.2248L74.051 16.8977L74.9896 19.1007H77.2147L81.8083 8.14102H79.2465H79.263Z" fill="white"/>
<path d="M103.788 15.0812C104.087 14.8382 104.335 14.5566 104.528 14.2419C104.727 13.9327 104.871 13.5849 104.964 13.215C105.058 12.8451 105.102 12.4531 105.102 12.05C105.102 11.4482 105.009 10.8961 104.815 10.4157C104.622 9.92984 104.329 9.51575 103.937 9.17343C103.551 8.83663 103.054 8.58265 102.469 8.40597C101.889 8.23481 101.199 8.14648 100.409 8.14648H95.1145V19.1061H97.461V16.075H100.404L102.309 19.1061H105.174L102.922 15.6167C103.247 15.4676 103.54 15.291 103.794 15.0867L103.788 15.0812ZM102.651 12.0445C102.651 12.3261 102.607 12.5856 102.518 12.8119C102.43 13.0383 102.298 13.226 102.121 13.3806C101.939 13.5407 101.712 13.6622 101.442 13.7506C101.166 13.8389 100.835 13.8886 100.465 13.8886H97.461V10.3274H100.465C101.21 10.3274 101.768 10.482 102.126 10.7801C102.48 11.0783 102.651 11.4868 102.651 12.039V12.0445Z" fill="white"/>
<path d="M116.001 9.59873C115.466 9.12942 114.781 8.76501 113.964 8.51655C113.158 8.2681 112.192 8.14111 111.099 8.14111H107.245V19.1008H111.115C112.208 19.1063 113.174 18.9683 113.981 18.6922C114.792 18.4161 115.477 18.0297 116.012 17.5383C116.548 17.0469 116.957 16.4506 117.216 15.777C117.476 15.1034 117.608 14.3636 117.608 13.574C117.608 12.7458 117.476 11.9839 117.211 11.3158C116.946 10.6422 116.537 10.0625 115.996 9.5932L116.001 9.59873ZM111.606 16.9254H109.591V10.3331H111.606C112.203 10.3331 112.727 10.4104 113.175 10.5649C113.611 10.714 113.986 10.9349 114.279 11.2109C114.566 11.487 114.792 11.8293 114.936 12.2213C115.085 12.6189 115.157 13.0826 115.157 13.5796C115.157 14.0765 115.079 14.5568 114.936 14.9709C114.792 15.3795 114.566 15.7328 114.279 16.0199C113.986 16.307 113.616 16.5334 113.175 16.6935C112.727 16.8536 112.203 16.9309 111.612 16.9309L111.606 16.9254Z" fill="white"/>
<path d="M121.992 8.00293H119.634V18.9626H121.992V8.00293Z" fill="white"/>
<path d="M132.659 8.00293V11.3819L126.536 8.00293H124.3V18.9626H126.641V10.7194L132.653 14.0156V18.9626H135V8.00293H132.653H132.659Z" fill="white"/>
<path d="M86.5235 8.14111L81.6371 19.1008H84.1217L87.7271 10.9017L91.4429 19.1008H93.9219L88.8865 8.14111H86.5235Z" fill="white"/>
</svg>
