<svg width="19" height="19" viewBox="0 0 19 19" fill="none" xmlns="http://www.w3.org/2000/svg">
<mask id="mask0_0_6187" style="mask-type:alpha" maskUnits="userSpaceOnUse" x="0" y="0" width="19" height="19">
<rect x="0.978882" y="0.458252" width="17.7276" height="17.7276" fill="#D9D9D9"/>
</mask>
<g mask="url(#mask0_0_6187)">
<path d="M7.62671 7.1056C7.41743 7.1056 7.242 7.03481 7.10043 6.89324C6.95885 6.75166 6.88806 6.57623 6.88806 6.36695C6.88806 6.15766 6.95885 5.98224 7.10043 5.84066C7.242 5.69909 7.41743 5.6283 7.62671 5.6283H12.0586C12.2679 5.6283 12.4433 5.69909 12.5849 5.84066C12.7265 5.98224 12.7972 6.15766 12.7972 6.36695C12.7972 6.57623 12.7265 6.75166 12.5849 6.89324C12.4433 7.03481 12.2679 7.1056 12.0586 7.1056H7.62671ZM6.14942 17.4467C5.74316 17.4467 5.39538 17.302 5.10608 17.0127C4.81677 16.7234 4.67212 16.3756 4.67212 15.9694V2.67371C4.67212 2.26745 4.81677 1.91967 5.10608 1.63037C5.39538 1.34106 5.74316 1.19641 6.14942 1.19641H13.5359C13.9422 1.19641 14.2899 1.34106 14.5792 1.63037C14.8685 1.91967 15.0132 2.26745 15.0132 2.67371V15.9694C15.0132 16.3756 14.8685 16.7234 14.5792 17.0127C14.2899 17.302 13.9422 17.4467 13.5359 17.4467H6.14942ZM6.14942 13.7534H13.5359V4.88965H6.14942V13.7534Z" fill="#3366FF"/>
</g>
</svg>
