<svg width="19" height="19" viewBox="0 0 19 19" fill="none" xmlns="http://www.w3.org/2000/svg">
<mask id="mask0_0_6192" style="mask-type:alpha" maskUnits="userSpaceOnUse" x="0" y="0" width="19" height="19">
<rect x="0.978882" y="0.315796" width="17.7276" height="17.7276" fill="#D9D9D9"/>
</mask>
<g mask="url(#mask0_0_6192)">
<path d="M6.88807 12.8728H10.5813C10.7906 12.8728 10.966 12.802 11.1076 12.6605C11.2492 12.5189 11.32 12.3434 11.32 12.1342C11.32 11.9249 11.2492 11.7495 11.1076 11.6079C10.966 11.4663 10.7906 11.3955 10.5813 11.3955H6.88807C6.67878 11.3955 6.50335 11.4663 6.36178 11.6079C6.2202 11.7495 6.14942 11.9249 6.14942 12.1342C6.14942 12.3434 6.2202 12.5189 6.36178 12.6605C6.50335 12.802 6.67878 12.8728 6.88807 12.8728ZM6.88807 9.91822H12.7973C13.0065 9.91822 13.182 9.84743 13.3235 9.70586C13.4651 9.56428 13.5359 9.38886 13.5359 9.17957C13.5359 8.97029 13.4651 8.79486 13.3235 8.65329C13.182 8.51171 13.0065 8.44092 12.7973 8.44092H6.88807C6.67878 8.44092 6.50335 8.51171 6.36178 8.65329C6.2202 8.79486 6.14942 8.97029 6.14942 9.17957C6.14942 9.38886 6.2202 9.56428 6.36178 9.70586C6.50335 9.84743 6.67878 9.91822 6.88807 9.91822ZM6.88807 6.96363H12.7973C13.0065 6.96363 13.182 6.89284 13.3235 6.75127C13.4651 6.60969 13.5359 6.43426 13.5359 6.22498C13.5359 6.0157 13.4651 5.84027 13.3235 5.69869C13.182 5.55712 13.0065 5.48633 12.7973 5.48633H6.88807C6.67878 5.48633 6.50335 5.55712 6.36178 5.69869C6.2202 5.84027 6.14942 6.0157 6.14942 6.22498C6.14942 6.43426 6.2202 6.60969 6.36178 6.75127C6.50335 6.89284 6.67878 6.96363 6.88807 6.96363ZM4.67212 15.8274C4.26586 15.8274 3.91808 15.6828 3.62878 15.3934C3.33948 15.1041 3.19482 14.7564 3.19482 14.3501V4.00903C3.19482 3.60278 3.33948 3.255 3.62878 2.96569C3.91808 2.67639 4.26586 2.53174 4.67212 2.53174H15.0132C15.4195 2.53174 15.7672 2.67639 16.0565 2.96569C16.3458 3.255 16.4905 3.60278 16.4905 4.00903V14.3501C16.4905 14.7564 16.3458 15.1041 16.0565 15.3934C15.7672 15.6828 15.4195 15.8274 15.0132 15.8274H4.67212Z" fill="#3366FF"/>
</g>
</svg>
