<svg width="19" height="19" viewBox="0 0 19 19" fill="none" xmlns="http://www.w3.org/2000/svg">
<mask id="mask0_0_6172" style="mask-type:alpha" maskUnits="userSpaceOnUse" x="0" y="0" width="19" height="19">
<rect x="0.978882" y="0.885498" width="17.7276" height="17.7276" fill="#D9D9D9"/>
</mask>
<g mask="url(#mask0_0_6172)">
<path d="M3.56415 15.6593C3.25638 15.6593 2.99477 15.5516 2.77934 15.3362C2.5639 15.1207 2.45618 14.8591 2.45618 14.5513C2.45618 14.2436 2.5639 13.982 2.77934 13.7665C2.99477 13.5511 3.25638 13.4434 3.56415 13.4434C3.87192 13.4434 4.13352 13.5511 4.34896 13.7665C4.5644 13.982 4.67212 14.2436 4.67212 14.5513C4.67212 14.8591 4.5644 15.1207 4.34896 15.3362C4.13352 15.5516 3.87192 15.6593 3.56415 15.6593ZM6.88807 15.6593C6.69109 15.6593 6.51874 15.6008 6.37101 15.4839C6.22328 15.3669 6.13095 15.21 6.09402 15.013C5.9586 14.2374 5.61082 13.5788 5.05068 13.0371C4.49054 12.4954 3.82268 12.1569 3.0471 12.0215C2.86243 11.9968 2.71778 11.9076 2.61314 11.7537C2.5085 11.5998 2.45618 11.4244 2.45618 11.2274C2.45618 11.0181 2.52081 10.8427 2.65007 10.7011C2.77934 10.5596 2.9363 10.5011 3.12096 10.5257C4.27818 10.6734 5.2692 11.1597 6.09402 11.9845C6.91884 12.8094 7.41127 13.8004 7.57132 14.9576C7.59594 15.1546 7.54054 15.3208 7.40512 15.4562C7.2697 15.5916 7.09735 15.6593 6.88807 15.6593ZM9.84266 15.6593C9.63337 15.6593 9.45795 15.5916 9.31637 15.4562C9.1748 15.3208 9.0917 15.1484 9.06708 14.9391C8.89473 13.3633 8.25149 12.0276 7.13736 10.932C6.02323 9.8363 4.67828 9.20845 3.10249 9.04841C2.90552 9.02379 2.74856 8.93761 2.63161 8.78989C2.51465 8.64216 2.45618 8.4698 2.45618 8.27283C2.45618 8.06355 2.52081 7.88504 2.65007 7.73731C2.77934 7.58958 2.9363 7.52803 3.12096 7.55265C5.103 7.71269 6.78958 8.48519 8.1807 9.87016C9.57182 11.2551 10.3597 12.9325 10.5444 14.9022C10.569 15.1115 10.5105 15.29 10.3689 15.4377C10.2274 15.5854 10.0519 15.6593 9.84266 15.6593ZM12.0586 15.6593C12.0586 14.3174 11.8093 13.0648 11.3107 11.9014C10.8121 10.7381 10.1289 9.72243 9.26097 8.85452C8.39306 7.98661 7.37434 7.30336 6.20482 6.80477C5.03529 6.30618 3.78574 6.05689 2.45618 6.05689V5.31824C2.45618 4.91198 2.60083 4.5642 2.89013 4.2749C3.17944 3.98559 3.52722 3.84094 3.93347 3.84094H15.7518C16.1581 3.84094 16.5059 3.98559 16.7952 4.2749C17.0845 4.5642 17.2291 4.91198 17.2291 5.31824V14.182C17.2291 14.5883 17.0845 14.9361 16.7952 15.2254C16.5059 15.5147 16.1581 15.6593 15.7518 15.6593H12.0586Z" fill="#3366FF"/>
</g>
</svg>
