<svg width="19" height="19" viewBox="0 0 19 19" fill="none" xmlns="http://www.w3.org/2000/svg">
<mask id="mask0_0_6182" style="mask-type:alpha" maskUnits="userSpaceOnUse" x="0" y="0" width="19" height="19">
<rect x="0.978882" y="0.600342" width="17.7276" height="17.7276" fill="#D9D9D9"/>
</mask>
<g mask="url(#mask0_0_6182)">
<path d="M9.84266 10.2025C10.4582 10.2025 10.9814 9.98708 11.4123 9.55621C11.8432 9.12533 12.0586 8.60212 12.0586 7.98658C12.0586 7.37104 11.8432 6.84783 11.4123 6.41695C10.9814 5.98607 10.4582 5.77063 9.84266 5.77063C9.22712 5.77063 8.70391 5.98607 8.27303 6.41695C7.84215 6.84783 7.62671 7.37104 7.62671 7.98658C7.62671 8.60212 7.84215 9.12533 8.27303 9.55621C8.70391 9.98708 9.22712 10.2025 9.84266 10.2025ZM3.93347 15.3731C3.52722 15.3731 3.17944 15.2284 2.89013 14.9391C2.60083 14.6498 2.45618 14.302 2.45618 13.8958V5.03199C2.45618 4.62573 2.60083 4.27795 2.89013 3.98865C3.17944 3.69934 3.52722 3.55469 3.93347 3.55469H15.7518C16.1581 3.55469 16.5059 3.69934 16.7952 3.98865C17.0845 4.27795 17.2291 4.62573 17.2291 5.03199V13.8958C17.2291 14.302 17.0845 14.6498 16.7952 14.9391C16.5059 15.2284 16.1581 15.3731 15.7518 15.3731H3.93347ZM5.22611 13.8958H14.4592C13.9052 13.2064 13.2343 12.6647 12.4464 12.2707C11.6585 11.8768 10.7906 11.6798 9.84266 11.6798C8.89473 11.6798 8.02681 11.8768 7.23892 12.2707C6.45103 12.6647 5.78009 13.2064 5.22611 13.8958ZM4.67212 17.589C4.46284 17.589 4.28741 17.5182 4.14583 17.3766C4.00426 17.2351 3.93347 17.0596 3.93347 16.8504C3.93347 16.6411 4.00426 16.4656 4.14583 16.3241C4.28741 16.1825 4.46284 16.1117 4.67212 16.1117H15.0132C15.2225 16.1117 15.3979 16.1825 15.5395 16.3241C15.6811 16.4656 15.7518 16.6411 15.7518 16.8504C15.7518 17.0596 15.6811 17.2351 15.5395 17.3766C15.3979 17.5182 15.2225 17.589 15.0132 17.589H4.67212ZM4.67212 2.81604C4.46284 2.81604 4.28741 2.74525 4.14583 2.60368C4.00426 2.46211 3.93347 2.28668 3.93347 2.07739C3.93347 1.86811 4.00426 1.69268 4.14583 1.55111C4.28741 1.40953 4.46284 1.33875 4.67212 1.33875H15.0132C15.2225 1.33875 15.3979 1.40953 15.5395 1.55111C15.6811 1.69268 15.7518 1.86811 15.7518 2.07739C15.7518 2.28668 15.6811 2.46211 15.5395 2.60368C15.3979 2.74525 15.2225 2.81604 15.0132 2.81604H4.67212Z" fill="#3366FF"/>
</g>
</svg>
