<svg width="19" height="19" viewBox="0 0 19 19" fill="none" xmlns="http://www.w3.org/2000/svg">
<mask id="mask0_0_6177" style="mask-type:alpha" maskUnits="userSpaceOnUse" x="0" y="0" width="19" height="19">
<rect x="0.978882" y="0.743042" width="17.7276" height="17.7276" fill="#D9D9D9"/>
</mask>
<g mask="url(#mask0_0_6177)">
<path d="M15.3825 15.8855C15.5918 15.8855 15.7672 15.8147 15.9088 15.6731C16.0504 15.5315 16.1212 15.3561 16.1212 15.1468C16.1212 14.9375 16.0504 14.7621 15.9088 14.6205C15.7672 14.4789 15.5918 14.4082 15.3825 14.4082C15.1732 14.4082 14.9978 14.4789 14.8562 14.6205C14.7147 14.7621 14.6439 14.9375 14.6439 15.1468C14.6439 15.3561 14.7147 15.5315 14.8562 15.6731C14.9978 15.8147 15.1732 15.8855 15.3825 15.8855ZM9.84266 16.9934C8.57465 16.9934 7.39589 16.6918 6.30638 16.0886C5.21687 15.4853 4.3582 14.7036 3.73034 13.7434L6.9804 10.4933L8.88242 12.1183C9.03015 12.2538 9.19942 12.3153 9.39024 12.303C9.58105 12.2907 9.74417 12.2168 9.87959 12.0814L12.7973 9.18222V9.60694C12.7973 9.81622 12.868 9.99165 13.0096 10.1332C13.1512 10.2748 13.3266 10.3456 13.5359 10.3456C13.7452 10.3456 13.9206 10.2748 14.0622 10.1332C14.2038 9.99165 14.2745 9.81622 14.2745 9.60694V7.391C14.2745 7.18171 14.2038 7.00628 14.0622 6.86471C13.9206 6.72313 13.7452 6.65235 13.5359 6.65235H11.32C11.1107 6.65235 10.9352 6.72313 10.7937 6.86471C10.6521 7.00628 10.5813 7.18171 10.5813 7.391C10.5813 7.60028 10.6521 7.77571 10.7937 7.91728C10.9352 8.05886 11.1107 8.12964 11.32 8.12964H11.7447L9.3256 10.5487L7.40512 8.94216C7.25739 8.81905 7.08812 8.76057 6.8973 8.76673C6.70648 8.77288 6.54336 8.84367 6.40794 8.97909L2.9917 12.3953C2.81935 11.9891 2.687 11.5305 2.59467 11.0196C2.50234 10.5087 2.45618 10.0378 2.45618 9.60694C2.45618 8.58514 2.65007 7.6249 3.03786 6.72621C3.42565 5.82752 3.95194 5.04579 4.61672 4.381C5.28151 3.71622 6.06324 3.18993 6.96193 2.80214C7.86062 2.41435 8.82086 2.22046 9.84266 2.22046C10.8645 2.22046 11.8247 2.41435 12.7234 2.80214C13.6221 3.18993 14.4038 3.71622 15.0686 4.381C15.7334 5.04579 16.2597 5.82752 16.6475 6.72621C17.0352 7.6249 17.2291 8.58514 17.2291 9.60694V15.5161C17.2291 15.9224 17.0845 16.2702 16.7952 16.5595C16.5059 16.8488 16.1581 16.9934 15.7518 16.9934H9.84266Z" fill="#3366FF"/>
</g>
</svg>
