<svg width="19" height="18" viewBox="0 0 19 18" fill="none" xmlns="http://www.w3.org/2000/svg">
<mask id="mask0_0_6197" style="mask-type:alpha" maskUnits="userSpaceOnUse" x="0" y="0" width="19" height="18">
<rect x="0.978882" y="0.173218" width="17.7276" height="17.7276" fill="#D9D9D9"/>
</mask>
<g mask="url(#mask0_0_6197)">
<path d="M9.04861 8.46442L7.99604 7.41185C7.86062 7.27643 7.69135 7.20564 7.48822 7.19948C7.28509 7.19333 7.10966 7.26412 6.96193 7.41185C6.82651 7.54726 6.7588 7.71962 6.7588 7.9289C6.7588 8.13818 6.82651 8.31053 6.96193 8.44595L8.53156 10.034C8.67929 10.1818 8.85164 10.2556 9.04861 10.2556C9.24559 10.2556 9.41794 10.1818 9.56567 10.034L13.0004 6.89479C13.0004 6.69782 12.9881 6.507 12.9634 6.32234C12.9388 6.13768 12.8588 5.97764 12.7234 5.84222C12.5757 5.69449 12.4002 5.62062 12.1971 5.62062C11.994 5.62062 11.8185 5.69449 11.6708 5.84222L9.04861 8.46442ZM1.71753 15.6847V14.2074H17.2291C17.4384 14.2074 17.6139 14.2782 17.7554 14.4198C17.897 14.5613 17.9678 14.7368 17.9678 14.9461C17.9678 15.1553 17.897 15.3308 17.7554 15.4723C17.6139 15.6139 17.4384 15.6847 17.2291 15.6847H1.71753ZM3.93347 13.4688C3.52722 13.4688 3.17944 13.3241 2.89013 13.0348C2.60083 12.7455 2.45618 12.3977 2.45618 11.9915V3.86633C2.45618 3.46008 2.60083 3.1123 2.89013 2.82299C3.17944 2.53369 3.52722 2.38904 3.93347 2.38904H15.7518C16.1581 2.38904 16.5059 2.53369 16.7952 2.82299C17.0845 3.1123 17.2291 3.46008 17.2291 3.86633V11.9915C17.2291 12.3977 17.0845 12.7455 16.7952 13.0348C16.5059 13.3241 16.1581 13.4688 15.7518 13.4688H3.93347Z" fill="#3366FF"/>
</g>
</svg>
