<svg width="19" height="18" viewBox="0 0 19 18" fill="none" xmlns="http://www.w3.org/2000/svg">
<mask id="mask0_0_6167" style="mask-type:alpha" maskUnits="userSpaceOnUse" x="0" y="0" width="19" height="18">
<rect x="0.978882" y="0.027832" width="17.7276" height="17.7276" fill="#D9D9D9"/>
</mask>
<g mask="url(#mask0_0_6167)">
<path d="M8.67929 11.292H10.9691L11.2461 12.1414C11.2953 12.2768 11.3754 12.3846 11.4862 12.4646C11.5969 12.5446 11.7201 12.5846 11.8555 12.5846C12.0894 12.5846 12.271 12.4892 12.4002 12.2984C12.5295 12.1076 12.5572 11.9075 12.4833 11.6982L10.7475 6.80468C10.6983 6.66927 10.6121 6.55847 10.489 6.47229C10.3659 6.38612 10.2304 6.34303 10.0827 6.34303H9.6026C9.45487 6.34303 9.31945 6.38612 9.19634 6.47229C9.07323 6.55847 8.98706 6.66927 8.93781 6.80468L7.18352 11.7352C7.10966 11.9444 7.13736 12.1383 7.26662 12.3168C7.39589 12.4954 7.57131 12.5846 7.79291 12.5846C7.92833 12.5846 8.05144 12.5446 8.16223 12.4646C8.27303 12.3846 8.35305 12.2768 8.40229 12.1414L8.67929 11.292ZM9.03014 10.2209L9.84266 7.78339L10.6367 10.2209H9.03014ZM8.36536 2.24353C8.15608 2.24353 7.98065 2.17274 7.83907 2.03117C7.6975 1.8896 7.62671 1.71417 7.62671 1.50488C7.62671 1.2956 7.6975 1.12017 7.83907 0.978597C7.98065 0.837022 8.15608 0.766235 8.36536 0.766235H11.32C11.5292 0.766235 11.7047 0.837022 11.8462 0.978597C11.9878 1.12017 12.0586 1.2956 12.0586 1.50488C12.0586 1.71417 11.9878 1.8896 11.8462 2.03117C11.7047 2.17274 11.5292 2.24353 11.32 2.24353H8.36536ZM9.84266 16.2778C8.93166 16.2778 8.07298 16.1024 7.26662 15.7516C6.46026 15.4007 5.75547 14.9237 5.15224 14.3204C4.54901 13.7172 4.07197 13.0124 3.72111 12.206C3.37025 11.3997 3.19482 10.541 3.19482 9.63001C3.19482 8.71901 3.37025 7.86034 3.72111 7.05398C4.07197 6.24762 4.54901 5.54283 5.15224 4.9396C5.75547 4.33637 6.46026 3.85932 7.26662 3.50847C8.07298 3.15761 8.93166 2.98218 9.84266 2.98218C10.6059 2.98218 11.3384 3.10529 12.0401 3.3515C12.7419 3.59772 13.4005 3.95473 14.016 4.42254L14.5331 3.90549C14.6685 3.77007 14.8408 3.70236 15.0501 3.70236C15.2594 3.70236 15.4318 3.77007 15.5672 3.90549C15.7026 4.04091 15.7703 4.21326 15.7703 4.42254C15.7703 4.63183 15.7026 4.80418 15.5672 4.9396L15.0501 5.45665C15.5179 6.07219 15.875 6.73082 16.1212 7.43254C16.3674 8.13425 16.4905 8.86674 16.4905 9.63001C16.4905 10.541 16.3151 11.3997 15.9642 12.206C15.6133 13.0124 15.1363 13.7172 14.5331 14.3204C13.9298 14.9237 13.2251 15.4007 12.4187 15.7516C11.6123 16.1024 10.7537 16.2778 9.84266 16.2778Z" fill="#3366FF"/>
</g>
</svg>
